<?xml version="1.0" standalone="no"?>
<!DOCTYPE svg PUBLIC "-//W3C//DTD SVG 20010904//EN"
 "http://www.w3.org/TR/2001/REC-SVG-20010904/DTD/svg10.dtd">
<svg version="1.0" xmlns="http://www.w3.org/2000/svg"
 width="461.000000pt" height="476.000000pt" viewBox="0 0 461.000000 476.000000"
 preserveAspectRatio="xMidYMid meet">

<g transform="translate(0.000000,476.000000) scale(0.100000,-0.100000)"
fill="#000000" stroke="none">
<path d="M3580 4679 c-41 -16 -138 -50 -215 -75 -835 -271 -1624 -257 -2342
42 -73 31 -141 54 -151 52 -15 -3 -18 -21 -24 -145 -12 -252 -61 -390 -181
-507 -102 -101 -215 -151 -447 -202 -181 -39 -199 -45 -205 -65 -8 -26 -2 -33
53 -64 109 -63 162 -103 242 -184 146 -147 203 -292 202 -521 0 -160 -22 -279
-111 -625 -39 -148 -80 -315 -91 -370 -27 -130 -43 -336 -35 -450 24 -344 111
-558 302 -747 198 -194 449 -305 913 -403 301 -64 555 -181 755 -349 74 -63
76 -63 147 -3 193 163 429 263 743 317 28 5 129 23 225 39 186 32 287 62 403
118 314 153 503 401 582 763 26 119 31 415 10 580 -16 131 -59 334 -91 435
-116 367 -149 671 -98 895 42 190 160 354 339 475 76 51 88 65 79 89 -7 18
-20 22 -99 31 -123 14 -304 65 -400 113 -257 128 -381 336 -390 652 -1 65 -6
123 -9 129 -10 16 -23 14 -106 -20z m51 -174 c18 -288 142 -493 380 -628 81
-46 240 -102 362 -128 31 -7 57 -15 57 -19 0 -3 -31 -34 -69 -68 -221 -197
-315 -467 -283 -805 15 -154 46 -303 111 -532 77 -270 102 -414 108 -636 6
-211 -5 -336 -43 -468 -82 -280 -249 -484 -500 -610 -45 -22 -115 -51 -155
-65 -74 -25 -119 -34 -389 -81 -268 -47 -450 -100 -595 -172 -86 -43 -222
-132 -254 -167 -31 -33 -43 -33 -83 3 -66 57 -235 165 -328 209 -129 60 -292
113 -490 156 -214 48 -284 67 -407 115 -308 120 -489 271 -606 506 -79 159
-119 431 -99 673 14 164 32 251 117 572 98 372 106 411 112 610 5 158 3 183
-17 260 -42 165 -143 317 -286 430 -41 33 -84 65 -95 70 -10 6 -19 14 -19 18
0 4 59 22 132 41 225 58 346 118 442 222 58 62 110 154 140 244 19 60 46 231
46 298 0 32 4 47 13 47 7 0 63 -20 124 -45 146 -58 351 -118 552 -161 209 -44
626 -66 861 -45 250 23 464 61 695 122 118 32 336 102 388 125 65 28 71 21 78
-91z"/>
<path d="M3302 4250 c-92 -19 -97 -22 -88 -46 5 -13 14 -15 41 -10 30 6 35 4
40 -16 8 -35 35 -169 35 -174 0 -2 11 -4 25 -4 30 0 32 23 10 115 -20 84 -19
92 15 104 20 7 30 17 30 30 0 24 0 24 -108 1z"/>
<path d="M1146 4243 c-9 -30 -46 -206 -46 -219 0 -17 30 -26 45 -14 7 6 16 35
20 65 10 81 25 78 25 -4 0 -59 3 -72 19 -81 33 -17 41 -12 71 53 l30 62 -6
-67 c-6 -67 -5 -68 19 -68 20 0 27 6 31 28 14 70 37 215 34 217 -2 2 -21 5
-43 7 l-39 3 -31 -65 -32 -64 -6 33 c-4 19 -7 51 -7 72 0 33 -4 41 -26 49 -37
14 -52 12 -58 -7z"/>
<path d="M1430 4208 c-1 -2 -7 -43 -14 -92 -16 -101 -11 -132 26 -159 32 -24
112 -26 138 -2 18 16 36 96 42 190 3 37 1 40 -22 40 -24 0 -26 -4 -38 -90 -8
-61 -18 -94 -29 -102 -22 -17 -27 -16 -53 5 -22 18 -22 20 -10 105 6 47 9 91
5 96 -5 9 -44 16 -45 9z"/>
<path d="M3051 4188 c-5 -13 -15 -52 -21 -88 -18 -95 -30 -140 -38 -140 -4 0
-22 19 -41 41 -31 37 -32 41 -17 58 22 24 21 84 -2 104 -20 18 -91 23 -152 11
l-32 -7 7 -106 c8 -133 11 -141 41 -141 22 0 24 4 24 50 0 43 3 50 19 50 11 0
37 -20 59 -45 36 -41 42 -44 78 -39 72 10 84 14 84 32 0 29 14 41 56 47 36 6
41 4 52 -19 11 -25 54 -37 66 -18 3 5 -23 57 -58 118 -52 92 -66 109 -89 112
-20 3 -29 -2 -36 -20z m-162 -62 c18 -21 2 -45 -35 -52 -40 -7 -41 -7 -46 26
-3 24 2 27 63 39 4 0 12 -5 18 -13z m231 -53 c0 -7 -9 -13 -20 -13 -21 0 -26
22 -13 55 5 15 8 14 19 -6 7 -13 13 -30 14 -36z"/>
<path d="M1677 4173 c-9 -15 -29 -232 -22 -243 3 -5 15 -10 25 -10 15 0 20 11
25 65 4 36 10 65 14 65 3 0 22 -30 41 -68 28 -54 40 -68 62 -70 30 -4 32 4 43
161 l7 87 -25 0 c-26 0 -37 -27 -37 -96 0 -19 -4 -34 -8 -34 -4 0 -22 31 -40
69 -30 62 -46 81 -72 81 -5 0 -11 -3 -13 -7z"/>
<path d="M2562 4143 c-5 -10 -22 -61 -37 -113 -15 -52 -29 -103 -32 -112 -4
-14 1 -18 21 -18 18 0 30 8 41 30 13 26 21 30 55 30 33 0 42 -4 52 -25 8 -18
19 -25 40 -25 15 0 28 4 28 9 0 4 -25 60 -55 125 -48 102 -58 116 -80 116 -13
0 -28 -8 -33 -17z m52 -95 c9 -35 8 -38 -14 -38 -11 0 -20 3 -20 8 0 19 13 52
20 52 4 0 10 -10 14 -22z"/>
<path d="M1966 4118 c-8 -18 -31 -71 -50 -116 -20 -46 -36 -88 -36 -94 0 -5
12 -8 27 -6 19 2 32 12 41 31 14 28 21 31 69 21 20 -4 33 -15 40 -35 11 -28
45 -40 57 -21 3 5 -12 62 -33 128 -38 117 -39 119 -70 122 -27 3 -33 -1 -45
-30z m57 -84 c3 -17 0 -27 -10 -31 -24 -9 -35 11 -22 40 14 31 25 28 32 -9z"/>
<path d="M2260 4020 l0 -130 73 0 c83 0 118 14 131 53 8 21 6 35 -8 61 -14 26
-16 38 -7 54 16 30 14 40 -14 67 -21 22 -33 25 -100 25 l-75 0 0 -130z m135
55 c0 -16 -8 -21 -42 -23 -40 -3 -43 -2 -43 23 0 25 3 26 43 23 34 -2 42 -7
42 -23z m10 -105 c0 -23 -4 -25 -47 -28 -48 -3 -48 -3 -48 28 0 31 0 31 48 28
43 -3 47 -5 47 -28z"/>
<path d="M3597 3929 c-130 -28 -400 -66 -587 -83 -699 -66 -1404 -43 -2022 66
l-178 31 -59 -46 c-65 -51 -157 -99 -273 -143 -43 -15 -80 -35 -83 -42 -8 -21
11 -48 49 -71 55 -34 139 -132 179 -209 60 -114 80 -204 79 -362 0 -194 -24
-319 -142 -760 -84 -314 -94 -385 -94 -635 0 -160 4 -227 17 -282 95 -411 391
-649 920 -738 107 -18 267 -63 382 -107 84 -32 298 -136 343 -167 115 -78 172
-111 193 -111 13 0 51 16 84 36 260 157 621 286 985 353 212 39 359 101 479
201 294 245 355 717 185 1418 -69 285 -114 584 -114 759 0 169 39 363 97 476
14 29 57 83 94 120 86 86 88 102 15 111 -125 14 -278 79 -376 158 -33 26 -66
48 -73 47 -6 -1 -52 -9 -100 -20z m-1228 -234 l33 -85 97 0 c53 0 102 -4 108
-8 9 -5 -14 -24 -67 -57 -45 -26 -83 -51 -85 -55 -2 -4 9 -42 26 -85 16 -43
27 -80 25 -83 -3 -2 -41 16 -84 42 -43 25 -85 46 -93 46 -8 -1 -50 -23 -94
-50 -44 -27 -81 -47 -83 -46 -1 2 12 41 29 86 37 96 43 82 -72 155 l-64 40 99
3 c55 1 105 7 111 12 6 5 24 45 40 89 16 45 32 81 35 81 4 0 21 -38 39 -85z
m485 -107 c23 -33 21 -68 -4 -68 -23 0 -27 -15 -5 -24 22 -8 18 -29 -10 -49
-29 -21 -65 -9 -65 22 0 10 -7 24 -15 31 -21 18 -19 51 5 57 10 3 26 16 35 29
19 30 39 31 59 2z m-974 -6 c0 -4 -14 -27 -31 -50 -32 -44 -92 -82 -129 -82
-30 0 -24 22 15 63 46 47 145 94 145 69z m-184 -44 c-7 -38 -32 -75 -65 -97
l-24 -16 7 45 c7 46 47 100 74 100 11 0 13 -8 8 -32z m1297 10 c9 -7 20 -28
23 -45 6 -31 5 -33 -20 -33 -31 0 -32 -6 -9 -33 17 -18 17 -20 -6 -38 -35 -29
-73 -20 -76 18 -1 10 -7 28 -13 41 -14 25 -1 62 21 62 7 0 20 9 30 20 20 23
27 24 50 8z m-1403 -32 c0 -45 -36 -120 -74 -152 -22 -19 -44 -34 -48 -34 -13
0 1 88 19 127 22 48 103 95 103 59z m-149 -110 c-16 -86 -34 -118 -99 -174
l-60 -52 5 42 c17 153 40 200 119 245 46 27 50 20 35 -61z m1703 68 c9 -8 16
-31 16 -51 0 -33 -2 -35 -25 -29 -28 7 -31 0 -10 -28 20 -27 19 -29 -17 -45
-37 -17 -62 -6 -66 30 -2 13 -8 36 -14 52 -12 30 5 62 28 53 8 -3 18 4 24 14
13 24 43 26 64 4z m-1371 -74 c11 -10 -54 -50 -80 -50 -10 0 -28 6 -39 14 -18
14 -17 16 26 35 42 19 73 19 93 1z m1517 -29 c5 -11 10 -34 10 -51 0 -30 -2
-31 -30 -25 -34 8 -36 4 -14 -30 16 -24 15 -25 -11 -35 -58 -22 -80 0 -80 81
0 50 2 54 25 57 14 2 29 8 35 13 16 16 54 10 65 -10z m-2060 -153 c-1 -62 -6
-111 -13 -124 -19 -33 -91 -123 -99 -124 -11 0 -21 107 -13 155 3 25 13 62 22
83 14 36 79 112 95 112 4 0 8 -46 8 -102z m449 85 c21 -18 21 -18 -32 -47 -55
-29 -99 -31 -137 -6 -13 9 -12 12 4 23 55 35 84 47 112 47 18 0 41 -8 53 -17z
m-216 -45 c-13 -12 -25 -19 -28 -16 -3 3 1 13 10 22 9 9 22 16 28 16 6 0 2
-10 -10 -22z m1947 12 c33 -18 42 -45 30 -90 -12 -45 -16 -47 -42 -23 -23 20
-33 12 -19 -15 19 -36 13 -49 -26 -56 -55 -9 -72 15 -69 97 2 34 4 65 5 68 2
13 34 19 46 9 8 -6 18 -5 31 5 23 18 21 17 44 5z m-2001 -57 c-6 -10 -31 -36
-56 -58 -24 -22 -67 -62 -95 -90 -52 -52 -53 -49 -4 23 16 23 34 42 42 42 7 0
37 22 66 50 59 55 63 58 47 33z m186 -25 c24 -11 34 -28 17 -28 -4 0 -32 -16
-62 -36 -51 -33 -59 -35 -116 -31 -100 7 -100 13 0 81 43 29 115 35 161 14z
m1882 -79 c8 -8 17 -8 30 0 15 7 25 6 40 -4 31 -22 36 -59 15 -101 -18 -35
-18 -35 -37 -15 -23 27 -38 27 -31 1 19 -64 21 -60 -24 -55 -50 5 -72 28 -65
68 3 15 8 42 11 60 3 17 7 38 9 45 5 15 37 16 52 1z m-2432 -126 c14 -123 10
-163 -17 -223 l-25 -55 -22 44 c-29 55 -37 136 -22 198 13 50 58 126 71 118 4
-2 11 -39 15 -82z m413 58 c10 -6 -2 -23 -45 -65 -66 -64 -137 -93 -205 -82
-34 6 -42 3 -64 -21 -14 -16 -34 -44 -45 -63 -10 -19 -18 -28 -18 -20 0 8 6
26 14 40 8 14 15 36 15 50 1 31 45 68 54 45 9 -25 30 -17 55 20 13 19 41 51
62 70 36 32 44 35 102 35 34 0 68 -4 75 -9z m1185 -35 c10 -8 19 -23 20 -35 1
-12 5 -21 10 -21 5 0 6 9 2 19 -3 11 -1 22 5 26 20 12 22 -3 10 -52 -10 -41
-10 -52 5 -78 l17 -30 -7 48 c-4 29 -2 47 4 47 19 0 25 -21 37 -142 3 -41 2
-58 -7 -58 -7 0 -9 -9 -5 -24 4 -16 1 -26 -9 -30 -8 -3 -15 -13 -15 -21 0 -19
-23 -45 -39 -45 -21 0 -10 -30 23 -64 19 -19 61 -48 93 -65 34 -19 67 -46 80
-66 13 -19 31 -39 42 -45 17 -8 23 -5 42 23 30 42 38 47 80 47 25 0 42 -7 58
-24 20 -21 22 -30 15 -86 -4 -41 -14 -70 -26 -82 -10 -10 -23 -29 -29 -41
l-10 -22 5 23 c2 12 0 22 -5 22 -5 0 -9 -17 -9 -37 0 -47 -9 -83 -21 -83 -5 0
-6 14 -2 30 5 26 3 30 -16 30 -11 0 -21 5 -21 11 0 5 -4 8 -9 5 -5 -3 -12 1
-15 10 -12 32 -6 71 15 90 46 42 49 89 3 59 -14 -9 -34 -13 -48 -9 -20 5 -25
2 -23 -14 1 -18 -14 -75 -35 -133 -9 -26 4 -99 23 -124 5 -6 11 -41 15 -78 6
-58 5 -67 -10 -67 -22 0 -54 -34 -58 -62 -2 -18 -10 -24 -37 -26 -43 -4 -53 6
-45 46 4 21 12 32 24 32 10 0 23 7 30 15 7 8 18 15 24 15 7 0 12 20 14 53 1
39 -3 58 -18 77 l-20 25 -1 -35 c-5 -95 -7 -104 -44 -138 -20 -19 -34 -40 -31
-48 3 -7 1 -16 -5 -19 -15 -10 -70 6 -76 21 -6 16 33 64 52 64 28 0 53 47 63
115 8 60 7 75 -9 106 -9 19 -25 41 -33 48 -9 8 -16 24 -16 37 0 14 -6 24 -15
24 -8 0 -19 9 -25 20 -6 11 -21 20 -33 20 -59 0 -198 104 -180 133 4 6 -5 8
-20 5 -20 -4 -34 3 -66 36 -21 23 -46 58 -55 79 -26 63 -65 60 -66 -6 0 -15
-9 -35 -20 -44 -24 -21 -26 -39 -5 -47 18 -7 19 -36 2 -60 -12 -16 -14 -16
-31 3 -24 27 -17 91 19 161 14 27 25 56 25 63 0 8 10 18 23 24 18 9 29 5 65
-25 46 -38 46 -38 57 -4 6 21 4 23 -13 18 -16 -5 -21 -1 -27 21 -13 52 -48 70
-75 38 -7 -8 -26 -15 -42 -15 -28 0 -30 -2 -25 -29 4 -21 1 -37 -13 -53 -10
-13 -20 -21 -23 -18 -9 9 -11 45 -3 77 6 28 18 37 82 68 83 40 95 39 134 -18
23 -34 24 -35 49 -18 15 9 40 29 58 46 50 48 100 85 114 85 7 0 3 7 -10 16
-13 9 -41 17 -63 17 -29 0 -38 3 -34 13 4 10 -3 14 -20 14 -22 0 -25 4 -22 27
4 33 34 50 119 66 41 8 58 16 54 24 -6 17 5 16 28 -1z m949 -93 c11 -9 31 -17
46 -18 37 0 57 -56 36 -97 -20 -39 -34 -44 -53 -19 -20 26 -31 18 -31 -21 0
-33 2 -32 -43 -13 -47 19 -63 67 -34 97 8 7 17 27 21 43 7 26 21 44 35 45 3 0
13 -8 23 -17z m-2283 -70 c0 -5 -21 -39 -47 -78 -53 -77 -94 -110 -151 -120
-57 -10 -72 -25 -86 -91 l-12 -59 -1 62 c0 42 4 66 14 74 8 6 14 17 14 24 0 8
8 11 18 9 12 -4 29 13 61 62 48 72 116 124 163 124 15 0 28 -3 27 -7z m-365
-180 c21 -31 26 -49 26 -103 0 -55 -26 -192 -29 -152 -1 8 -19 39 -41 69 -38
53 -40 60 -40 127 0 63 9 121 27 166 4 10 10 0 19 -27 7 -23 24 -59 38 -80z
m2722 32 c9 -14 20 -22 26 -19 5 3 20 -2 33 -10 35 -23 35 -84 0 -123 -24 -27
-25 -28 -40 -9 -8 11 -15 26 -15 33 0 7 -4 13 -10 13 -5 0 -10 -8 -10 -18 0
-23 -19 -42 -42 -42 -51 0 -80 94 -38 123 11 8 25 28 31 45 13 39 42 42 65 7z
m-2609 -7 c-3 -8 -6 -5 -6 6 -1 11 2 17 5 13 3 -3 4 -12 1 -19z m173 -54 c0
-4 -9 -38 -20 -76 -15 -48 -31 -79 -56 -103 -32 -32 -92 -70 -99 -63 -8 8 17
105 37 141 32 57 138 135 138 101z m2467 -144 c7 -14 23 -27 35 -30 13 -3 29
-19 37 -34 18 -39 4 -82 -36 -113 -35 -27 -35 -27 -47 30 -8 35 -22 27 -30
-18 -4 -19 -9 -35 -12 -35 -3 0 -21 12 -40 28 -53 42 -57 120 -6 136 10 3 23
20 29 37 9 24 17 30 35 27 12 -2 28 -14 35 -28z m-2771 -202 c14 -27 39 -207
29 -216 -6 -6 -68 61 -107 117 -33 47 -47 134 -34 206 l7 37 46 -59 c25 -32
51 -70 59 -85z m92 -28 c0 -83 2 -153 6 -157 15 -16 29 21 36 94 8 88 16 108
72 169 50 54 71 58 57 12 -5 -18 -9 -57 -9 -86 0 -74 -18 -109 -90 -178 l-62
-59 5 -85 4 -85 -12 53 c-7 29 -18 59 -25 67 -9 11 -10 18 -1 28 8 10 8 50 1
148 -6 74 -13 140 -15 147 -2 6 0 12 5 12 5 0 12 16 16 35 3 19 8 35 10 35 2
0 3 -68 2 -150z m2680 -12 c7 -7 12 -22 12 -33 0 -12 13 -31 30 -43 21 -16 30
-31 30 -52 0 -44 -17 -79 -42 -89 -70 -26 -68 -26 -68 23 0 25 -4 46 -10 46
-5 0 -10 -6 -10 -12 -1 -22 -41 -65 -47 -50 -3 7 -16 26 -30 43 -21 24 -24 37
-20 65 7 43 23 64 48 64 10 0 26 11 35 25 17 27 52 33 72 13z m-2323 -57 c3
-5 -4 -13 -16 -16 -32 -11 -53 -69 -39 -111 13 -39 35 -54 79 -54 17 0 31 -5
31 -10 0 -14 26 10 27 25 1 5 7 24 14 42 11 28 11 37 -4 69 -10 20 -27 38 -37
41 -34 9 -22 23 16 19 20 -3 42 -13 50 -23 32 -43 29 -132 -7 -157 -18 -12
-18 -15 -4 -49 19 -45 19 -47 -1 -47 -8 0 -20 14 -25 30 -12 32 -19 36 -36 19
-20 -20 -79 -1 -112 36 -40 46 -49 95 -26 145 10 22 25 41 34 43 29 8 50 7 56
-2z m2015 -18 c30 -39 25 -131 -10 -168 -30 -32 -86 -51 -105 -35 -10 9 -15 7
-19 -8 -5 -14 2 -29 24 -50 38 -39 44 -106 13 -165 -21 -41 -133 -88 -133 -57
0 6 -7 10 -15 10 -24 0 -17 -23 14 -49 25 -21 28 -28 20 -49 -7 -19 -6 -29 7
-43 16 -17 16 -19 1 -19 -9 0 -27 -18 -39 -40 -13 -22 -30 -40 -38 -40 -8 -1
-32 -7 -52 -14 -21 -8 -35 -10 -32 -5 3 5 1 9 -5 9 -5 0 -17 7 -25 16 -9 8
-20 12 -26 9 -15 -9 -12 -25 6 -25 10 0 12 -4 7 -12 -8 -13 -9 -17 -12 -71 0
-18 -14 -42 -35 -63 -29 -29 -41 -34 -79 -34 -34 0 -53 6 -74 24 -24 21 -26
25 -11 31 9 4 25 2 37 -4 59 -32 111 2 121 77 3 29 3 52 -2 52 -4 0 -8 7 -8
15 0 24 -102 21 -124 -4 -24 -27 -39 -93 -23 -103 14 -9 -17 -38 -40 -38 -16
0 -17 -12 -2 -27 17 -17 -7 -95 -35 -123 -30 -27 -74 -39 -113 -28 -34 9 -87
63 -77 79 3 6 -10 9 -33 7 -31 -2 -38 0 -37 15 1 9 -2 17 -7 17 -5 0 -9 -13
-9 -29 0 -27 -4 -30 -47 -39 -27 -6 -61 -8 -78 -5 l-30 6 24 -27 c39 -42 101
-35 127 15 8 17 23 29 34 29 11 0 20 -3 20 -6 0 -20 -36 -75 -58 -90 -32 -21
-94 -22 -126 0 -30 19 -60 72 -52 92 4 10 -2 14 -21 14 -20 0 -24 -3 -16 -11
16 -16 5 -39 -17 -39 -11 0 -21 -4 -24 -9 -10 -15 -63 -20 -98 -9 -18 6 -57
10 -85 9 -59 -2 -64 5 -29 40 34 34 40 109 9 120 -25 9 -37 25 -28 39 4 6 22
2 46 -11 32 -16 39 -24 34 -39 -9 -30 10 -24 40 11 30 37 26 49 -9 26 -20 -13
-26 -14 -35 -3 -17 20 29 57 80 63 32 5 50 15 73 41 17 19 41 47 54 61 13 14
30 36 39 49 18 26 38 30 29 5 -4 -9 -16 -71 -27 -136 -22 -131 -33 -157 -66
-157 -18 0 -23 -6 -23 -25 0 -14 4 -25 9 -25 5 0 7 9 4 21 -5 18 -2 20 23 17
24 -2 32 2 46 32 10 19 17 39 16 45 -3 14 9 85 38 233 13 68 24 127 24 130 0
4 21 -33 45 -82 36 -70 99 -166 161 -245 1 -1 13 4 26 13 28 20 80 21 118 1
52 -27 32 -54 -25 -34 -27 10 -40 10 -61 0 l-27 -12 38 -39 c35 -36 37 -40 19
-47 -10 -4 -36 -7 -56 -7 -21 0 -38 -2 -38 -3 0 -1 11 -13 24 -27 28 -31 75
-42 106 -26 22 12 56 77 46 88 -3 3 -1 11 5 19 9 9 8 13 0 13 -23 0 -10 28 20
40 21 9 27 16 20 23 -35 35 17 140 76 156 46 13 90 4 108 -22 12 -17 17 -19
27 -8 11 10 10 14 -4 22 -23 13 -24 94 -3 135 25 50 114 81 143 52 10 -10 15
-10 22 2 14 21 12 30 -5 30 -9 0 -20 12 -25 26 -34 88 22 184 108 184 18 0 32
6 36 16 9 24 7 34 -8 34 -24 0 -49 68 -43 117 8 70 26 83 118 83 73 0 79 -2
99 -27z m-2205 -227 c-7 -53 -23 -92 -61 -143 -13 -17 -24 -46 -24 -62 0 -31
32 -106 80 -186 13 -22 18 -35 11 -29 -6 6 -19 24 -29 41 -9 16 -32 57 -51 91
-19 33 -46 66 -60 73 -21 10 -23 13 -8 16 9 3 17 12 17 22 0 12 7 17 23 17 17
-1 21 4 19 19 -12 68 -13 162 -3 202 7 25 26 67 44 92 l32 46 8 -75 c4 -41 5
-97 2 -124z m-287 75 c63 -52 89 -98 106 -191 l14 -69 -38 19 c-100 51 -160
146 -160 252 1 51 3 60 13 48 7 -8 36 -35 65 -59z m2742 -21 c11 -11 20 -31
20 -44 0 -14 13 -38 31 -56 27 -26 31 -36 26 -66 -9 -56 -28 -72 -106 -89
l-34 -7 6 51 c3 28 2 51 -2 51 -5 0 -21 -19 -36 -42 -26 -39 -28 -40 -41 -23
-8 10 -14 24 -14 30 0 7 -9 20 -21 31 -17 15 -20 26 -14 59 7 49 30 75 65 75
16 0 35 10 48 25 26 30 45 32 72 5z m-2061 -76 c39 -32 54 -86 40 -137 -6 -21
-16 -40 -24 -43 -7 -3 -11 -13 -8 -23 4 -15 13 -17 58 -13 48 4 56 2 78 -23
51 -57 53 -60 49 -105 -2 -34 -1 -41 7 -30 9 12 11 11 11 -8 0 -20 -4 -22 -22
-17 -34 10 -40 20 -44 61 -2 21 -12 46 -22 57 -22 21 -89 39 -98 26 -10 -17
-24 -9 -35 18 -7 20 -13 23 -21 15 -7 -7 -29 -12 -49 -12 -102 0 -156 146 -83
225 19 20 28 25 37 16 8 -8 5 -21 -11 -50 -42 -74 -20 -127 58 -141 27 -5 46
-5 48 1 2 5 9 9 16 9 8 0 12 19 12 62 -1 59 -3 64 -33 83 -36 22 -44 55 -14
55 11 0 33 -12 50 -26z m-532 -81 c-3 -10 -5 -4 -5 12 0 17 2 24 5 18 2 -7 2
-21 0 -30z m232 -79 c28 -52 27 -78 -9 -181 -16 -47 -30 -92 -30 -98 0 -29
186 -188 211 -180 9 3 24 -4 35 -16 26 -30 145 -124 166 -132 42 -15 25 20
-35 77 -73 67 -97 116 -97 193 l0 45 66 -58 c36 -32 72 -71 81 -88 9 -17 19
-70 22 -119 6 -81 9 -91 34 -113 30 -26 84 -44 224 -73 51 -11 106 -27 123
-36 30 -15 39 -38 20 -50 -11 -7 -62 19 -94 47 -11 10 -36 20 -55 24 -63 10
-182 44 -213 60 -26 14 -53 15 -167 9 -170 -9 -207 0 -273 67 -27 26 -48 51
-48 55 0 4 46 5 102 2 112 -6 138 -15 208 -74 34 -28 50 -35 77 -33 18 2 34 8
36 13 4 18 -176 145 -206 145 -20 0 -30 7 -37 24 -8 22 -105 109 -180 161 -29
21 -49 78 -23 68 19 -7 16 27 -9 113 -19 66 -20 83 -11 143 6 38 19 81 29 96
l19 29 7 -41 c3 -22 16 -58 27 -79z m201 6 c0 -5 -2 -10 -4 -10 -3 0 -8 5 -11
10 -3 6 -1 10 4 10 6 0 11 -4 11 -10z m-556 -39 c10 -11 42 -29 71 -41 32 -13
64 -35 78 -53 26 -34 70 -118 81 -154 l7 -21 -65 22 c-36 13 -76 30 -90 39
-34 23 -80 92 -100 150 -25 76 -18 98 18 58z m2585 8 c51 22 90 -15 75 -73 -4
-16 0 -33 10 -48 37 -52 3 -138 -54 -138 -16 0 -41 5 -55 10 -22 9 -26 15 -23
38 3 15 9 36 13 46 7 17 6 18 -11 11 -10 -4 -32 -10 -49 -12 -29 -4 -30 -3
-42 47 -11 46 -10 56 4 81 21 35 51 49 80 36 15 -7 31 -6 52 2z m-1933 -84 c3
-8 1 -28 -4 -45 -24 -66 36 -133 99 -111 21 7 31 6 40 -5 13 -16 -4 -44 -28
-44 -8 0 -11 -5 -7 -12 5 -8 2 -9 -12 -3 -10 5 -31 9 -46 9 -14 1 -24 4 -22 8
3 4 -4 12 -15 17 -27 15 -61 73 -61 105 0 34 26 96 40 96 6 0 13 -7 16 -15z
m-145 -113 c11 -23 23 -75 26 -115 l6 -72 -34 26 c-18 14 -48 48 -66 74 -29
41 -33 55 -33 110 0 97 6 105 47 59 19 -22 43 -58 54 -82z m836 66 c-14 -18
-46 -55 -72 -83 l-47 -50 34 45 c79 104 101 131 106 126 2 -3 -7 -20 -21 -38z
m-652 12 c3 -5 1 -10 -4 -10 -6 0 -11 5 -11 10 0 6 2 10 4 10 3 0 8 -4 11 -10z
m1750 -79 c10 15 47 11 67 -8 19 -17 24 -63 9 -92 -7 -12 -5 -32 6 -63 14 -38
15 -50 4 -77 -8 -17 -27 -41 -43 -52 -28 -20 -30 -20 -78 -3 -56 20 -60 32
-30 82 28 46 25 54 -14 35 -51 -24 -63 -14 -69 59 -4 53 -1 68 17 95 30 47 54
55 93 32 19 -10 35 -14 38 -8z m-1755 -2 c0 -5 -4 -9 -10 -9 -5 0 -10 7 -10
16 0 8 5 12 10 9 6 -3 10 -10 10 -16z m495 11 c-3 -5 -12 -10 -18 -10 -7 0 -6
4 3 10 19 12 23 12 15 0z m-350 -40 c16 -18 19 -18 30 -3 8 10 32 18 66 21 54
4 56 3 83 -33 31 -40 48 -96 36 -115 -13 -21 -40 -3 -40 25 0 14 -11 37 -25
51 -21 21 -34 25 -68 22 -23 -2 -47 -9 -52 -16 -8 -10 -17 -6 -43 18 -18 16
-30 34 -27 40 9 15 20 12 40 -10z m771 -52 c4 -6 3 -8 -4 -4 -5 3 -12 0 -15
-6 -2 -7 -8 -10 -12 -6 -8 8 2 28 15 28 5 0 12 -5 16 -12z m-756 -55 c9 -82
47 -111 116 -87 47 16 66 4 39 -26 -38 -42 -118 -35 -165 15 -24 25 -36 89
-26 130 11 41 30 23 36 -32z m54 42 c-7 -16 -24 -21 -24 -6 0 8 7 13 27 20 1
1 0 -6 -3 -14z m-104 -5 c0 -5 -4 -10 -10 -10 -5 0 -10 5 -10 10 0 6 5 10 10
10 6 0 10 -4 10 -10z m-561 -41 c88 -12 113 -24 169 -82 l44 -44 -44 -7 c-62
-9 -160 8 -200 35 -19 13 -48 45 -63 72 l-28 50 24 -7 c13 -4 57 -12 98 -17z
m1981 -24 c14 -15 35 -25 50 -25 34 0 59 -28 70 -75 7 -30 4 -40 -16 -64 -20
-24 -23 -36 -18 -74 l6 -44 -73 5 c-41 2 -76 6 -78 8 -2 2 9 24 23 49 30 50
24 54 -34 25 -21 -11 -41 -17 -43 -12 -5 8 7 118 19 167 15 65 55 82 94 40z
m-981 -321 c62 -3 109 -9 103 -13 -5 -3 24 -6 65 -6 41 -1 66 2 56 6 -19 7
195 19 362 21 94 0 100 -1 103 -21 3 -18 -2 -21 -28 -21 -17 0 -29 -4 -25 -9
7 -12 -58 -31 -106 -31 -20 0 -39 -3 -43 -7 -4 -4 -28 -9 -53 -10 -26 -1 -49
-7 -52 -11 -17 -26 -53 -33 -108 -22 -31 7 -69 9 -85 6 -16 -3 -27 -2 -24 3 8
12 -83 1 -123 -15 -18 -8 -47 -14 -63 -14 -28 0 -30 2 -25 29 4 19 1 33 -8 41
-8 7 -13 16 -10 20 5 8 -69 26 -169 39 -38 6 -74 15 -80 21 -11 12 12 11 313
-6z m-271 -50 c23 -3 42 -10 42 -15 0 -5 7 -9 16 -9 23 0 104 -41 104 -53 0
-5 -12 -6 -27 -3 -16 3 -48 6 -73 8 -36 2 -45 -1 -48 -15 -3 -16 19 -17 315
-19 175 -1 329 -1 343 -1 14 0 53 1 86 2 59 1 62 2 67 29 l6 29 213 1 c295 2
318 -6 200 -63 -34 -16 -61 -33 -62 -37 0 -4 10 -10 23 -14 12 -3 30 -13 40
-22 9 -8 27 -20 39 -26 13 -6 24 -19 26 -29 3 -15 -12 -17 -160 -19 l-163 -3
-3 -27 -3 -28 -553 0 -552 0 -9 33 -10 32 -155 3 c-85 1 -159 7 -163 11 -5 5
3 17 19 27 16 9 46 28 67 42 l37 25 -42 21 c-70 35 -78 40 -78 53 0 7 1 13 3
13 1 1 74 3 162 6 180 6 190 8 181 30 -10 25 3 35 37 30 18 -3 51 -8 75 -12z
m276 -360 c24 -23 19 -47 -14 -79 -33 -31 -31 -45 6 -45 44 0 21 -25 -26 -28
-64 -5 -69 9 -20 62 26 28 40 51 36 61 -6 17 -32 20 -41 5 -9 -15 -25 -12 -25
5 0 32 58 45 84 19z m119 3 c20 -14 32 -74 23 -111 -7 -30 -39 -50 -65 -41
-36 11 -53 84 -30 128 21 38 43 46 72 24z m125 -78 c-3 -84 -21 -97 -26 -19
-3 45 -5 50 -23 45 -11 -4 -19 -2 -19 5 0 16 54 60 63 51 4 -4 7 -41 5 -82z
m142 37 c0 -23 5 -47 10 -52 7 -7 6 -19 -2 -37 -15 -32 -24 -34 -38 -7 -6 11
-16 20 -23 19 -28 -3 -47 2 -47 13 0 19 80 119 91 113 5 -4 9 -25 9 -49z"/>
<path d="M2570 2960 c0 -5 5 -10 10 -10 6 0 10 5 10 10 0 6 -4 10 -10 10 -5 0
-10 -4 -10 -10z"/>
<path d="M2460 2940 c0 -5 7 -10 16 -10 8 0 12 5 9 10 -3 6 -10 10 -16 10 -5
0 -9 -4 -9 -10z"/>
<path d="M2375 2591 c-3 -5 -1 -12 5 -16 5 -3 10 1 10 9 0 18 -6 21 -15 7z"/>
<path d="M3239 2161 c-20 -20 -29 -39 -29 -62 0 -41 37 -102 57 -95 8 3 23 6
34 6 35 0 69 44 69 89 0 32 -6 44 -31 65 -40 34 -64 33 -100 -3z"/>
<path d="M3174 1909 c-40 -11 -68 -52 -61 -88 3 -14 7 -35 9 -46 5 -30 29 -44
68 -38 50 8 80 38 80 83 0 33 -20 76 -44 92 -13 9 -12 9 -52 -3z"/>
<path d="M3046 1669 c-22 -3 -45 -15 -53 -24 -15 -22 -8 -34 9 -17 7 7 19 12
28 12 9 0 11 -3 4 -8 -6 -4 -14 -16 -18 -26 -5 -15 -9 -17 -18 -8 -20 20 -28
13 -28 -26 0 -58 54 -89 115 -66 28 11 48 62 39 103 -4 20 -7 39 -6 44 1 4 -4
7 -12 7 -8 0 -16 4 -18 8 -1 4 -21 5 -42 1z m51 -71 c-3 -8 -6 -5 -6 6 -1 11
2 17 5 13 3 -3 4 -12 1 -19z m-64 -52 c13 5 16 2 11 -10 -3 -9 -9 -16 -13 -16
-11 0 -31 23 -31 35 0 5 4 4 8 -3 5 -7 16 -10 25 -6z"/>
<path d="M2470 1270 c-13 -8 -13 -10 2 -10 9 0 20 5 23 10 8 13 -5 13 -25 0z"/>
<path d="M2265 1256 c-3 -9 -7 -23 -10 -31 -2 -8 0 -15 5 -15 11 0 25 48 16
57 -3 3 -8 -2 -11 -11z"/>
<path d="M2218 1023 c7 -3 16 -2 19 1 4 3 -2 6 -13 5 -11 0 -14 -3 -6 -6z"/>
<path d="M2708 1023 c6 -2 18 -2 25 0 6 3 1 5 -13 5 -14 0 -19 -2 -12 -5z"/>
<path d="M2178 1013 c7 -3 16 -2 19 1 4 3 -2 6 -13 5 -11 0 -14 -3 -6 -6z"/>
<path d="M2468 1013 c6 -2 18 -2 25 0 6 3 1 5 -13 5 -14 0 -19 -2 -12 -5z"/>
<path d="M1846 813 c13 -52 24 -74 34 -68 5 3 10 15 10 26 0 28 17 23 24 -6 9
-34 23 -23 36 26 12 44 5 65 -12 36 -9 -18 -10 -18 -23 0 -13 17 -14 17 -28
-1 -12 -17 -14 -17 -20 -2 -11 28 -28 18 -21 -11z"/>
<path d="M1970 789 c0 -31 4 -48 10 -44 6 3 10 26 10 51 0 24 -4 44 -10 44 -5
0 -10 -23 -10 -51z"/>
<path d="M2013 822 c10 -10 17 -33 17 -51 0 -19 4 -30 10 -26 6 3 10 21 10 39
0 17 5 37 12 44 9 9 3 12 -27 12 -36 0 -37 -1 -22 -18z"/>
<path d="M2087 833 c-9 -8 -9 -56 -1 -77 7 -18 64 -23 64 -6 0 6 -9 10 -20 10
-27 0 -25 18 3 30 l22 9 -22 0 c-13 1 -23 6 -23 11 0 6 10 15 23 20 20 8 20 9
-9 9 -17 1 -34 -2 -37 -6z"/>
<path d="M2202 793 l3 -48 43 0 c24 -1 48 5 54 12 7 9 15 10 30 2 28 -15 33
-5 16 38 -20 48 -36 53 -51 14 -14 -38 -25 -40 -29 -3 -2 23 -8 28 -36 30
l-33 3 3 -48z m42 16 c-3 -5 -10 -7 -15 -3 -5 3 -7 10 -3 15 3 5 10 7 15 3 5
-3 7 -10 3 -15z m6 -40 c0 -5 -7 -9 -15 -9 -15 0 -20 12 -9 23 8 8 24 -1 24
-14z"/>
<path d="M2370 795 c0 -25 5 -45 10 -45 6 0 10 7 10 15 0 8 4 15 9 15 5 0 14
-7 21 -15 14 -17 51 -20 67 -4 7 7 15 6 26 -5 24 -24 28 -4 10 43 -20 52 -39
52 -53 1 -16 -61 -35 -54 -30 13 1 25 -1 27 -34 27 -36 0 -36 0 -36 -45z m47
9 c-9 -9 -28 6 -21 18 4 6 10 6 17 -1 6 -6 8 -13 4 -17z"/>
<path d="M2550 795 c0 -25 5 -45 10 -45 6 0 10 7 10 15 0 21 15 19 31 -4 13
-18 17 -19 51 -7 26 9 40 10 47 3 20 -20 22 0 5 42 -9 22 -21 41 -26 41 -5 0
-17 -18 -25 -40 -18 -46 -23 -48 -41 -19 -10 16 -11 24 -1 35 16 20 3 30 -17
13 -13 -11 -18 -11 -21 -1 -10 28 -23 9 -23 -33z"/>
<path d="M2728 828 c7 -7 12 -27 12 -45 0 -18 5 -33 10 -33 6 0 10 15 10 33 0
18 5 38 12 45 9 9 4 12 -22 12 -26 0 -31 -3 -22 -12z"/>
<path d="M2800 795 c0 -25 5 -45 10 -45 6 0 10 20 10 45 0 25 -4 45 -10 45 -5
0 -10 -20 -10 -45z"/>
<path d="M2247 624 c-4 -4 -7 -27 -7 -50 0 -70 31 -68 33 2 1 34 -13 60 -26
48z"/>
<path d="M2496 575 c-3 -9 0 -15 9 -15 8 0 15 7 15 15 0 8 -4 15 -9 15 -5 0
-11 -7 -15 -15z"/>
</g>
</svg>
