<?xml version="1.0" standalone="no"?>
<!DOCTYPE svg PUBLIC "-//W3C//DTD SVG 20010904//EN"
 "http://www.w3.org/TR/2001/REC-SVG-20010904/DTD/svg10.dtd">
<svg version="1.0" xmlns="http://www.w3.org/2000/svg"
 width="512.000000pt" height="512.000000pt" viewBox="0 0 512.000000 512.000000"
 preserveAspectRatio="xMidYMid meet">

<g transform="translate(0.000000,512.000000) scale(0.100000,-0.100000)"
fill="#000000" stroke="none">
<path d="M435 5110 c-224 -36 -401 -222 -429 -453 -9 -77 11 -184 49 -266 64
-135 209 -250 353 -280 75 -16 4229 -16 4304 0 144 30 289 145 353 280 131
278 -2 587 -303 702 l-57 22 -2110 1 c-1160 1 -2132 -2 -2160 -6z"/>
<path d="M404 3055 c-200 -43 -365 -221 -394 -423 -37 -261 140 -513 399 -568
99 -21 4203 -21 4302 0 259 55 436 307 399 568 -29 204 -195 380 -399 424 -95
20 -4214 19 -4307 -1z"/>
<path d="M395 1006 c-140 -34 -278 -146 -340 -277 -133 -282 9 -601 315 -705
53 -18 130 -19 2190 -19 2060 0 2137 1 2190 19 202 68 339 234 364 439 9 77
-11 184 -49 266 -64 135 -209 250 -353 280 -80 17 -4248 14 -4317 -3z"/>
</g>
</svg>
